#N canvas 0 22 1280 752 12;
#X msg 77 130 start;
#X msg 30 238 stop;
#X obj 31 278 bng 15 250 50 0 empty empty empty 0 -6 0 8 -262144 -1
-1;
#X obj 326 612 dac~;
#X obj 242 577 *~ 0.7;
#X obj 105 180 readsf~ 2;
#X obj 398 579 *~ 0.7;
#X text 45 18 3.4.1.2. play file;
#X text 419 628 www.pd-tutorial.com;
#X text 432 603 Johannes Kreidler;
#X obj 107 51 bng 15 250 50 0 empty sample1 r:sample1 17 7 0 10 -262144
-1 -1;
#X obj 594 43 bng 15 250 50 0 empty sample4 r:sample4 17 7 0 10 -262144
-1 -1;
#X obj 919 42 bng 15 250 50 0 empty sample6 r:sample6 17 7 0 10 -262144
-1 -1;
#X obj 755 43 bng 15 250 50 0 empty sample5 r:sample5 17 7 0 10 -262144
-1 -1;
#X obj 426 41 bng 15 250 50 0 empty sample3 r:sample3 17 7 0 10 -262144
-1 -1;
#X obj 261 43 bng 15 250 50 0 empty sample2 r:sample2 17 7 0 10 -262144
-1 -1;
#X obj 1040 300 bng 15 250 50 0 empty sample8 r:sample8 17 7 0 10 -262144
-1 -1;
#X obj 1035 196 bng 15 250 50 0 empty sample7 r:sample7 17 7 0 10 -262144
-1 -1;
#X msg 109 99 open sample1.wav;
#X msg 259 94 open sample2.wav;
#X msg 425 87 open sample3.wav;
#X msg 595 85 open sample4.wav;
#X msg 755 90 open sample5.wav;
#X msg 920 87 open sample6.wav;
#X msg 1051 251 open sample7.wav;
#X msg 1058 354 open sample8.wav;
#X msg 235 136 start;
#X obj 270 179 readsf~ 2;
#X msg 399 136 start;
#X obj 432 177 readsf~ 2;
#X msg 562 138 start;
#X obj 601 179 readsf~ 2;
#X msg 725 138 start;
#X obj 758 179 readsf~ 2;
#X msg 896 134 start;
#X obj 927 175 readsf~ 2;
#X connect 0 0 5 0;
#X connect 1 0 5 0;
#X connect 4 0 3 0;
#X connect 5 0 4 0;
#X connect 5 1 6 0;
#X connect 5 2 2 0;
#X connect 6 0 3 1;
#X connect 10 0 18 0;
#X connect 10 0 0 0;
#X connect 11 0 21 0;
#X connect 11 0 30 0;
#X connect 12 0 23 0;
#X connect 12 0 34 0;
#X connect 13 0 22 0;
#X connect 13 0 32 0;
#X connect 14 0 20 0;
#X connect 14 0 28 0;
#X connect 15 0 19 0;
#X connect 15 0 26 0;
#X connect 16 0 25 0;
#X connect 17 0 24 0;
#X connect 18 0 5 0;
#X connect 19 0 27 0;
#X connect 20 0 29 0;
#X connect 21 0 31 0;
#X connect 22 0 33 0;
#X connect 23 0 35 0;
#X connect 26 0 27 0;
#X connect 27 0 4 0;
#X connect 27 1 6 0;
#X connect 28 0 29 0;
#X connect 29 0 4 0;
#X connect 29 1 6 0;
#X connect 30 0 31 0;
#X connect 31 0 4 0;
#X connect 31 1 6 0;
#X connect 32 0 33 0;
#X connect 33 0 4 0;
#X connect 34 0 35 0;
#X connect 35 0 6 0;
