#N canvas 260 94 797 616 10;
#X obj 331 319 dac~;
#N canvas 230 138 450 300 noteUnit 0;
#X obj 170 152 vline~;
#X obj 207 201 *~;
#X obj 241 121 mtof;
#X obj 229 152 osc~ 220;
#X msg 147 97 1 15 \, 0 200 5;
#X obj 279 57 inlet;
#X obj 118 44 inlet;
#X obj 200 246 outlet~;
#X connect 0 0 1 0;
#X connect 1 0 7 0;
#X connect 2 0 3 0;
#X connect 3 0 1 1;
#X connect 4 0 0 0;
#X connect 5 0 2 0;
#X connect 6 0 4 0;
#X restore 60 6 pd noteUnit;
#N canvas 230 138 450 300 noteUnit 0;
#X obj 170 152 vline~;
#X obj 207 201 *~;
#X obj 241 121 mtof;
#X obj 229 152 osc~ 220;
#X msg 147 97 1 15 \, 0 200 5;
#X obj 279 57 inlet;
#X obj 118 44 inlet;
#X obj 200 246 outlet~;
#X connect 0 0 1 0;
#X connect 1 0 7 0;
#X connect 2 0 3 0;
#X connect 3 0 1 1;
#X connect 4 0 0 0;
#X connect 5 0 2 0;
#X connect 6 0 4 0;
#X restore 620 1 pd noteUnit;
#N canvas 230 138 450 300 noteUnit 0;
#X obj 170 152 vline~;
#X obj 207 201 *~;
#X obj 241 121 mtof;
#X obj 229 152 osc~ 220;
#X msg 147 97 1 15 \, 0 200 5;
#X obj 279 57 inlet;
#X obj 118 44 inlet;
#X obj 200 246 outlet~;
#X connect 0 0 1 0;
#X connect 1 0 7 0;
#X connect 2 0 3 0;
#X connect 3 0 1 1;
#X connect 4 0 0 0;
#X connect 5 0 2 0;
#X connect 6 0 4 0;
#X restore 524 1 pd noteUnit;
#N canvas 230 138 450 300 noteUnit 0;
#X obj 170 152 vline~;
#X obj 207 201 *~;
#X obj 241 121 mtof;
#X obj 229 152 osc~ 220;
#X msg 147 97 1 15 \, 0 200 5;
#X obj 279 57 inlet;
#X obj 118 44 inlet;
#X obj 200 246 outlet~;
#X connect 0 0 1 0;
#X connect 1 0 7 0;
#X connect 2 0 3 0;
#X connect 3 0 1 1;
#X connect 4 0 0 0;
#X connect 5 0 2 0;
#X connect 6 0 4 0;
#X restore 251 5 pd noteUnit;
#N canvas 230 138 450 300 noteUnit 0;
#X obj 170 152 vline~;
#X obj 207 201 *~;
#X obj 241 121 mtof;
#X obj 229 152 osc~ 220;
#X msg 147 97 1 15 \, 0 200 5;
#X obj 279 57 inlet;
#X obj 118 44 inlet;
#X obj 200 246 outlet~;
#X connect 0 0 1 0;
#X connect 1 0 7 0;
#X connect 2 0 3 0;
#X connect 3 0 1 1;
#X connect 4 0 0 0;
#X connect 5 0 2 0;
#X connect 6 0 4 0;
#X restore 341 2 pd noteUnit;
#N canvas 230 138 450 300 noteUnit 0;
#X obj 170 152 vline~;
#X obj 207 201 *~;
#X obj 241 121 mtof;
#X obj 229 152 osc~ 220;
#X msg 147 97 1 15 \, 0 200 5;
#X obj 279 57 inlet;
#X obj 118 44 inlet;
#X obj 200 246 outlet~;
#X connect 0 0 1 0;
#X connect 1 0 7 0;
#X connect 2 0 3 0;
#X connect 3 0 1 1;
#X connect 4 0 0 0;
#X connect 5 0 2 0;
#X connect 6 0 4 0;
#X restore 431 2 pd noteUnit;
#N canvas 230 138 450 300 noteUnit 0;
#X obj 170 152 vline~;
#X obj 207 201 *~;
#X obj 241 121 mtof;
#X obj 229 152 osc~ 220;
#X msg 147 97 1 15 \, 0 200 5;
#X obj 279 57 inlet;
#X obj 118 44 inlet;
#X obj 200 246 outlet~;
#X connect 0 0 1 0;
#X connect 1 0 7 0;
#X connect 2 0 3 0;
#X connect 3 0 1 1;
#X connect 4 0 0 0;
#X connect 5 0 2 0;
#X connect 6 0 4 0;
#X restore 154 3 pd noteUnit;
#N canvas 230 138 450 300 noteUnit 0;
#X obj 170 152 vline~;
#X obj 207 201 *~;
#X obj 241 121 mtof;
#X obj 229 152 osc~ 220;
#X msg 147 97 1 15 \, 0 200 5;
#X obj 279 57 inlet;
#X obj 118 44 inlet;
#X obj 200 246 outlet~;
#X connect 0 0 1 0;
#X connect 1 0 7 0;
#X connect 2 0 3 0;
#X connect 3 0 1 1;
#X connect 4 0 0 0;
#X connect 5 0 2 0;
#X connect 6 0 4 0;
#X restore 705 2 pd noteUnit;
#X obj 55 -78 bng 15 250 50 0 empty note0 r:note0 17 7 0 10 -262144
-1 -1;
#X obj 156 -80 bng 15 250 50 0 empty note1 r:note1 17 7 0 10 -262144
-1 -1;
#X obj 257 -75 bng 15 250 50 0 empty note2 r:note2 17 7 0 10 -262144
-1 -1;
#X obj 338 -72 bng 15 250 50 0 empty note3 r:note3 17 7 0 10 -262144
-1 -1;
#X obj 431 -74 bng 15 250 50 0 empty note4 r:note4 17 7 0 10 -262144
-1 -1;
#X obj 523 -75 bng 15 250 50 0 empty note5 r:note5 17 7 0 10 -262144
-1 -1;
#X obj 620 -78 bng 15 250 50 0 empty note6 r:note6 17 7 0 10 -262144
-1 -1;
#X obj 705 -79 bng 15 250 50 0 empty note7 r:note7 17 7 0 10 -262144
-1 -1;
#X floatatom 72 -49 5 0 0 3 r:note0v note0v -;
#X floatatom 168 -49 5 0 0 3 r:note1v note1v -;
#X floatatom 266 -45 5 0 0 3 r:note2v note2v -;
#X floatatom 357 -42 5 0 0 3 r:note3v note3v -;
#X floatatom 444 -46 5 0 0 3 r:note4v note4v -;
#X floatatom 537 -47 5 0 0 3 r:note5v note5v -;
#X floatatom 639 -49 5 0 0 3 r:note6v note6v -;
#X floatatom 724 -45 5 0 0 3 r:note7v note7v -;
#N canvas 230 138 450 300 noteUnit 0;
#X obj 170 152 vline~;
#X obj 207 201 *~;
#X obj 241 121 mtof;
#X obj 229 152 osc~ 220;
#X msg 147 97 1 15 \, 0 200 5;
#X obj 279 57 inlet;
#X obj 118 44 inlet;
#X obj 200 246 outlet~;
#X connect 0 0 1 0;
#X connect 1 0 7 0;
#X connect 2 0 3 0;
#X connect 3 0 1 1;
#X connect 4 0 0 0;
#X connect 5 0 2 0;
#X connect 6 0 4 0;
#X restore 48 153 pd noteUnit;
#X obj 53 84 bng 15 250 50 0 empty genericNote r:genericNote 17 7 0
10 -262144 -1 -1;
#X floatatom 70 113 5 0 0 3 r:genericNoteV genericNoteV -;
#N canvas 230 138 450 300 noteUnit 0;
#X obj 170 152 vline~;
#X obj 207 201 *~;
#X obj 241 121 mtof;
#X obj 229 152 osc~ 220;
#X msg 147 97 1 15 \, 0 200 5;
#X obj 279 57 inlet;
#X obj 118 44 inlet;
#X obj 200 246 outlet~;
#X connect 0 0 1 0;
#X connect 1 0 7 0;
#X connect 2 0 3 0;
#X connect 3 0 1 1;
#X connect 4 0 0 0;
#X connect 5 0 2 0;
#X connect 6 0 4 0;
#X restore 689 176 pd noteUnit;
#X obj 689 95 bng 15 250 50 0 empty note8 r:note8 17 7 0 10 -262144
-1 -1;
#X floatatom 708 129 5 0 0 3 r:note8v note8v -;
#N canvas 230 138 450 300 noteUnit 0;
#X obj 170 152 vline~;
#X obj 207 201 *~;
#X obj 241 121 mtof;
#X obj 229 152 osc~ 220;
#X msg 147 97 1 15 \, 0 200 5;
#X obj 279 57 inlet;
#X obj 118 44 inlet;
#X obj 200 246 outlet~;
#X connect 0 0 1 0;
#X connect 1 0 7 0;
#X connect 2 0 3 0;
#X connect 3 0 1 1;
#X connect 4 0 0 0;
#X connect 5 0 2 0;
#X connect 6 0 4 0;
#X restore 681 305 pd noteUnit;
#X obj 681 224 bng 15 250 50 0 empty note9 r:note9 17 7 0 10 -262144
-1 -1;
#X floatatom 700 258 5 0 0 3 r:note9v note9v -;
#X connect 1 0 0 0;
#X connect 1 0 0 1;
#X connect 2 0 0 0;
#X connect 2 0 0 1;
#X connect 3 0 0 0;
#X connect 3 0 0 1;
#X connect 4 0 0 0;
#X connect 4 0 0 1;
#X connect 5 0 0 0;
#X connect 5 0 0 1;
#X connect 6 0 0 0;
#X connect 6 0 0 1;
#X connect 7 0 0 0;
#X connect 7 0 0 1;
#X connect 8 0 0 0;
#X connect 8 0 0 1;
#X connect 9 0 1 0;
#X connect 10 0 7 0;
#X connect 11 0 4 0;
#X connect 12 0 5 0;
#X connect 13 0 6 0;
#X connect 14 0 3 0;
#X connect 15 0 2 0;
#X connect 16 0 8 0;
#X connect 17 0 1 1;
#X connect 18 0 7 1;
#X connect 19 0 4 1;
#X connect 20 0 5 1;
#X connect 21 0 6 1;
#X connect 22 0 3 1;
#X connect 23 0 2 1;
#X connect 24 0 8 1;
#X connect 25 0 0 0;
#X connect 25 0 0 1;
#X connect 26 0 25 0;
#X connect 27 0 25 1;
#X connect 28 0 0 0;
#X connect 28 0 0 1;
#X connect 29 0 28 0;
#X connect 30 0 28 1;
#X connect 31 0 0 0;
#X connect 31 0 0 1;
#X connect 32 0 31 0;
#X connect 33 0 31 1;
