#N canvas 380 204 421 370 10;
#X obj 36 -334 bng 15 250 50 0 empty trigger r:trigger 17 7 0 10 -262144
-1 -1;
#X obj 45 -211 vline~;
#X obj 100 -156 *~;
#X obj 95 -94 dac~;
#X floatatom 248 -302 5 0 0 1 r:midinote midinote -;
#X obj 194 -233 mtof;
#X obj 171 -183 osc~ 220;
#X text 44 -169 comment;
#X obj 54 -277 metro 120;
#X floatatom 168 -321 5 0 0 1 r:metro metro -;
#X obj 60 -311 tgl 15 0 empty empty empty 17 7 0 10 -262144 -1 -1 0
1;
#X msg 47 -249 1 15 \, 0 200 5;
#X obj 16 -297 bng 15 250 50 0 empty noteTrigger r:noteTrigger 17 7
0 10 -262144 -1 -1;
#X connect 0 0 10 0;
#X connect 1 0 2 0;
#X connect 2 0 3 1;
#X connect 2 0 3 0;
#X connect 4 0 5 0;
#X connect 5 0 6 0;
#X connect 6 0 2 1;
#X connect 8 0 11 0;
#X connect 9 0 8 1;
#X connect 10 0 8 0;
#X connect 11 0 1 0;
#X connect 12 0 11 0;
